<svg id="Layer_2" data-name="Layer 2" xmlns="http://www.w3.org/2000/svg" viewBox="0 0 21.32 21.96"><defs><style>.cls-1{fill:#bf2426;}</style></defs><path class="cls-1" d="M48.24,25.74H51c0,.12,0,.24,0,.35v7.82a3.57,3.57,0,0,1-3.16,3.24c-2.07,0-4.14,0-6.21,0l-.14,0V34.36h5.7c.73,0,1-.29,1-1,0-2.38,0-4.76,0-7.14Z" transform="translate(-29.72 -15.2)"/><path class="cls-1" d="M38.62,34.36v2.8H33.44A3.59,3.59,0,0,1,30,34.24a6.22,6.22,0,0,1-.08-1c0-2.35,0-4.7,0-7v-.51h.87c.54,0,1.07,0,1.61,0,.3,0,.38.09.38.39q0,3.54,0,7.09c0,.94.24,1.17,1.19,1.17Z" transform="translate(-29.72 -15.2)"/><path class="cls-1" d="M41.51,18.07V15.23h5.88A3.7,3.7,0,0,1,51,18.1a.5.5,0,0,1,0,.12v3.42H48.24v-1.8c0-.29,0-.59,0-.88a.81.81,0,0,0-.89-.89H41.51Z" transform="translate(-29.72 -15.2)"/><path class="cls-1" d="M38.61,15.25v2.82H33.75c-.73,0-1,.28-1,1s0,1.47,0,2.2c0,.26,0,.39-.35.38-.83,0-1.65,0-2.58,0a27.82,27.82,0,0,1,.24-3.7,3.45,3.45,0,0,1,3.37-2.73c1.67-.05,3.34,0,5,0Z" transform="translate(-29.72 -15.2)"/><path class="cls-1" d="M51,23.26v1.1H29.72v-1.1Z" transform="translate(-29.72 -15.2)"/><path class="cls-1" d="M41.18,33.39V27.5h6.17v5.89Zm1.15-1.14h3.88V28.66H42.33Z" transform="translate(-29.72 -15.2)"/><path class="cls-1" d="M35.73,29.54v-4.2h4.46v4.2Zm3.35-.84V26.5h-2.2v2.2Z" transform="translate(-29.72 -15.2)"/><path class="cls-1" d="M38.22,19v1.17h-.71v1h2.76v1.14H36.34V20.19H35v2.18H33.83c0-.76,0-1.5,0-2.25,0-.36-.09-.85.11-1.06s.67-.07,1-.08Z" transform="translate(-29.72 -15.2)"/><path class="cls-1" d="M47.35,22h-1.1v-1.8H40.89V19h6.46Z" transform="translate(-29.72 -15.2)"/><path class="cls-1" d="M35,32.27h3.13v1.11H33.85V28.92H35Z" transform="translate(-29.72 -15.2)"/><path class="cls-1" d="M45.16,25.31v1.07H41.3V25.31Z" transform="translate(-29.72 -15.2)"/><path class="cls-1" d="M42,20.91h2.9V22H42Z" transform="translate(-29.72 -15.2)"/><path class="cls-1" d="M40.19,33.39H39.13V30.62h1.06Z" transform="translate(-29.72 -15.2)"/><path class="cls-1" d="M35,27.52H33.86V25.87H35Z" transform="translate(-29.72 -15.2)"/><path class="cls-1" d="M38.14,30.32v1.11H36.57V30.32Z" transform="translate(-29.72 -15.2)"/><path class="cls-1" d="M46.24,26.86l-.11-1.56h1.21v1.56Z" transform="translate(-29.72 -15.2)"/><path class="cls-1" d="M45.25,29c0,.59,0,1.16,0,1.73A.3.3,0,0,1,45,31c-.49,0-1,0-1.5,0V29Z" transform="translate(-29.72 -15.2)"/><path class="cls-1" d="M37.2,28.33V26.85h1.53v1.48Z" transform="translate(-29.72 -15.2)"/></svg>